<?xml version="1.0" encoding="UTF-8" standalone="no"?>
<!-- Created with Inkscape (http://www.inkscape.org/) -->

<svg
   xmlns:dc="http://purl.org/dc/elements/1.1/"
   xmlns:cc="http://creativecommons.org/ns#"
   xmlns:rdf="http://www.w3.org/1999/02/22-rdf-syntax-ns#"
   xmlns:svg="http://www.w3.org/2000/svg"
   xmlns="http://www.w3.org/2000/svg"
   xmlns:xlink="http://www.w3.org/1999/xlink"
   xmlns:sodipodi="http://sodipodi.sourceforge.net/DTD/sodipodi-0.dtd"
   xmlns:inkscape="http://www.inkscape.org/namespaces/inkscape"
   width="128"
   height="128"
   id="svg2"
   version="1.1"
   inkscape:version="0.48.4 r9939"
   sodipodi:docname="fp.svg"
   inkscape:export-filename="E:\MSVC\fastpreview\fp-70.png"
   inkscape:export-xdpi="49.220001"
   inkscape:export-ydpi="49.220001">
  <defs
     id="defs4">
    <linearGradient
       id="linearGradient4039">
      <stop
         style="stop-color:#ffffff;stop-opacity:1;"
         offset="0"
         id="stop4041" />
      <stop
         id="stop4043"
         offset="0.58333331"
         style="stop-color:#bababa;stop-opacity:1;" />
      <stop
         style="stop-color:#818181;stop-opacity:1;"
         offset="1"
         id="stop4045" />
    </linearGradient>
    <linearGradient
       id="linearGradient4010">
      <stop
         style="stop-color:#ffffff;stop-opacity:1;"
         offset="0"
         id="stop4012" />
      <stop
         id="stop4018"
         offset="0.54166669"
         style="stop-color:#7d97c2;stop-opacity:1;" />
      <stop
         style="stop-color:#24395e;stop-opacity:1;"
         offset="1"
         id="stop4014" />
    </linearGradient>
    <linearGradient
       id="linearGradient4000">
      <stop
         id="stop4002"
         offset="0"
         style="stop-color:#ffffff;stop-opacity:1;" />
      <stop
         style="stop-color:#d3d3d3;stop-opacity:1;"
         offset="0.58333331"
         id="stop4006" />
      <stop
         id="stop4004"
         offset="1"
         style="stop-color:#a8a8a8;stop-opacity:1;" />
    </linearGradient>
    <linearGradient
       id="linearGradient3980">
      <stop
         style="stop-color:#cfcfcf;stop-opacity:1;"
         offset="0"
         id="stop3982" />
      <stop
         id="stop4037"
         offset="0.71232331"
         style="stop-color:#bbbbbb;stop-opacity:1;" />
      <stop
         style="stop-color:#a8a8a8;stop-opacity:1;"
         offset="1"
         id="stop3984" />
    </linearGradient>
    <radialGradient
       inkscape:collect="always"
       xlink:href="#linearGradient3980"
       id="radialGradient3988"
       cx="19.700001"
       cy="993.06219"
       fx="19.700001"
       fy="993.06219"
       r="10"
       gradientTransform="matrix(1.2052623,0,0,3.8,-5.691044,-2781.2741)"
       gradientUnits="userSpaceOnUse" />
    <radialGradient
       inkscape:collect="always"
       xlink:href="#linearGradient4039"
       id="radialGradient3998"
       cx="102.70921"
       cy="30.088505"
       fx="102.70921"
       fy="30.088505"
       r="11.071428"
       gradientTransform="matrix(1,0,0,0.48387099,0,17.953917)"
       gradientUnits="userSpaceOnUse" />
    <radialGradient
       inkscape:collect="always"
       xlink:href="#linearGradient4010"
       id="radialGradient4016"
       cx="77.299698"
       cy="1007.5071"
       fx="77.299698"
       fy="1007.5071"
       r="16.488705"
       gradientTransform="matrix(0.80107113,-1.6173233e-8,1.6476809e-8,0.81610743,15.377125,185.26724)"
       gradientUnits="userSpaceOnUse" />
  </defs>
  <sodipodi:namedview
     id="base"
     pagecolor="#ffffff"
     bordercolor="#666666"
     borderopacity="1.0"
     inkscape:pageopacity="0.0"
     inkscape:pageshadow="2"
     inkscape:zoom="3.959798"
     inkscape:cx="128.87691"
     inkscape:cy="79.308953"
     inkscape:document-units="px"
     inkscape:current-layer="layer1"
     showgrid="false"
     showguides="true"
     inkscape:guide-bbox="true"
     inkscape:window-width="1440"
     inkscape:window-height="816"
     inkscape:window-x="-8"
     inkscape:window-y="-8"
     inkscape:window-maximized="1">
    <sodipodi:guide
       orientation="0,1"
       position="49.497475,62.629458"
       id="guide4022" />
  </sodipodi:namedview>
  <metadata
     id="metadata7">
    <rdf:RDF>
      <cc:Work
         rdf:about="">
        <dc:format>image/svg+xml</dc:format>
        <dc:type
           rdf:resource="http://purl.org/dc/dcmitype/StillImage" />
        <dc:title></dc:title>
      </cc:Work>
    </rdf:RDF>
  </metadata>
  <g
     inkscape:label="Layer 1"
     inkscape:groupmode="layer"
     id="layer1"
     transform="translate(0,-924.36218)">
    <rect
       style="fill:#f4f4f4;fill-opacity:1;stroke:#4d4d4d;stroke-width:3.92982459;stroke-linejoin:miter;stroke-miterlimit:0;stroke-opacity:1;stroke-dasharray:none"
       id="rect3948"
       width="28.070175"
       height="86.315788"
       x="14.964912"
       y="941.08148"
       rx="7"
       ry="7" />
    <rect
       style="fill:#f4f4f4;stroke:none;stroke-width:3.83223510000000010;stroke-linejoin:miter;stroke-miterlimit:0;stroke-opacity:1;stroke-dasharray:none;fill-opacity:1"
       id="rect2998"
       width="112.16776"
       height="86.167763"
       x="7.6661177"
       y="949.27832"
       rx="9.5869808"
       ry="9.5741949" />
    <rect
       style="fill:url(#radialGradient3988);fill-opacity:1;stroke:none"
       id="rect3950"
       width="24.105246"
       height="76"
       x="6"
       y="954.36218"
       rx="7.2315736"
       ry="6.0799999" />
    <path
       sodipodi:type="arc"
       style="fill:#4d4d4d;fill-opacity:1;stroke:none"
       id="path3952"
       sodipodi:cx="81.428574"
       sodipodi:cy="69.428574"
       sodipodi:rx="24.285715"
       sodipodi:ry="24.285715"
       d="m 105.71429,69.428574 c 0,13.41263 -10.873086,24.285715 -24.285716,24.285715 -13.41263,0 -24.285715,-10.873085 -24.285715,-24.285715 0,-13.41263 10.873085,-24.285715 24.285715,-24.285715 13.41263,0 24.285716,10.873085 24.285716,24.285715 z"
       transform="matrix(0.26470591,0,0,0.26470591,21.30252,949.69832)" />
    <path
       transform="matrix(0.22058826,0,0,0.22058826,38.109242,945.26135)"
       d="m 105.71429,69.428574 c 0,13.41263 -10.873086,24.285715 -24.285716,24.285715 -13.41263,0 -24.285715,-10.873085 -24.285715,-24.285715 0,-13.41263 10.873085,-24.285715 24.285715,-24.285715 13.41263,0 24.285716,10.873085 24.285716,24.285715 z"
       sodipodi:ry="24.285715"
       sodipodi:rx="24.285715"
       sodipodi:cy="69.428574"
       sodipodi:cx="81.428574"
       id="path3954"
       style="fill:#4d4d4d;fill-opacity:1;stroke:none"
       sodipodi:type="arc" />
    <path
       transform="matrix(0.99619938,0,0,0.99619938,-0.32008746,3.8715907)"
       d="m 79.84375,964.71875 c -0.979279,-0.0523 -1.938157,-0.002 -2.875,0.0312 -0.02036,7.3e-4 -0.04217,-7.2e-4 -0.0625,0 -0.214404,0.003 -0.362736,0.0301 -0.3125,0.0312 a 0.87596002,0.87596002 0 0 0 -0.0625,0 c -0.236904,0.0111 -0.577512,-0.0352 -1.03125,0 a 0.87596002,0.87596002 0 0 0 -0.25,0.0625 c -26.954924,0.50132 -42.172687,34.04203 -25,54.71875 a 0.87596002,0.87596002 0 0 0 0.125,0.3125 c 0.227877,0.3093 0.447905,0.4775 0.5625,0.625 a 0.87596002,0.87596002 0 0 0 0.03125,0.062 c 0.06391,0.071 0.154946,0.2326 0.375,0.4687 a 0.87596002,0.87596002 0 0 0 0.09375,0.063 0.87596002,0.87596002 0 0 0 0.125,0.094 c 16.691512,20.2703 51.38986,13.1043 58.1875,-12.4687 a 0.87596002,0.87596002 0 0 0 0.0312,-0.031 0.87596002,0.87596002 0 0 0 0.125,-0.25 c 0.0815,-0.2711 0.0863,-0.4115 0.0937,-0.4375 a 0.87596002,0.87596002 0 0 0 0,-0.031 c -0.005,0.02 0.0594,-0.1169 0.125,-0.4063 a 0.87596002,0.87596002 0 0 0 0.0312,-0.25 0.87596002,0.87596002 0 0 0 0,-0.094 c 5.30343,-20.32543 -9.33184,-41.37892 -30.3125,-42.50005 z"
       id="path4028"
       style="fill:none;stroke:#808080;stroke-width:4.01526048;stroke-miterlimit:4;stroke-opacity:1;stroke-dasharray:none"
       inkscape:original="M 79.8125 965.59375 C 78.87349 965.54357 77.900916 965.59101 76.9375 965.625 C 76.808853 965.62052 76.690639 965.65918 76.5625 965.65625 C 76.226411 965.67199 75.901286 965.62994 75.5625 965.65625 L 75.5625 965.6875 C 49.004412 965.92111 33.956658 999.13435 51.125 1019.3125 L 51.09375 1019.3438 C 51.259879 1019.5693 51.454586 1019.7494 51.625 1019.9688 C 51.761085 1020.1205 51.860127 1020.2874 52 1020.4375 L 52.03125 1020.4062 C 68.272948 1040.5197 102.59529 1033.4492 109.03125 1008.1875 L 109.0625 1008.1875 C 109.10619 1008.0422 109.11469 1007.8954 109.15625 1007.75 C 109.18765 1007.6189 109.25135 1007.507 109.28125 1007.375 L 109.25 1007.375 C 114.6887 987.46163 100.35553 966.69149 79.8125 965.59375 z "
       inkscape:radius="0.87587243"
       sodipodi:type="inkscape:offset" />
    <path
       sodipodi:type="inkscape:offset"
       inkscape:radius="-9.2475252"
       inkscape:original="M 79.8125 965.59375 C 78.87349 965.54357 77.900916 965.59101 76.9375 965.625 C 76.808853 965.62052 76.690639 965.65918 76.5625 965.65625 C 76.226411 965.67199 75.901286 965.62994 75.5625 965.65625 L 75.5625 965.6875 C 49.004412 965.92111 33.956658 999.13435 51.125 1019.3125 L 51.09375 1019.3438 C 51.259879 1019.5693 51.454586 1019.7494 51.625 1019.9688 C 51.761085 1020.1205 51.860127 1020.2874 52 1020.4375 L 52.03125 1020.4062 C 68.272948 1040.5197 102.59529 1033.4492 109.03125 1008.1875 L 109.0625 1008.1875 C 109.10619 1008.0422 109.11469 1007.8954 109.15625 1007.75 C 109.18765 1007.6189 109.25135 1007.507 109.28125 1007.375 L 109.25 1007.375 C 114.6887 987.46163 100.35553 966.69149 79.8125 965.59375 z "
       style="fill:none;stroke:#666666;stroke-width:3;stroke-miterlimit:4;stroke-opacity:1;stroke-dasharray:none"
       id="path4024"
       d="m 79.3125,974.8125 c -0.289101,-0.0154 -1.01524,0.0255 -2.0625,0.0625 a 9.24845,9.24845 0 0 1 -0.25,0 l 0,0.0312 c -0.722964,0.0339 -0.28086,-0.0255 -0.375,-0.0312 a 9.24845,9.24845 0 0 1 -0.09375,0 c 0.405304,0.0214 1.232195,0.0637 -0.1875,0.0312 a 9.24845,9.24845 0 0 1 -0.6875,0.0312 c -18.879806,0.16607 -29.694652,24.04248 -17.5,38.375 a 9.24845,9.24845 0 0 1 0.34375,0.4687 9.24845,9.24845 0 0 1 0.03125,0.063 9.24845,9.24845 0 0 1 0.09375,0.094 c -0.01604,-0.023 0.04059,0.045 0.03125,0.031 a 9.24845,9.24845 0 0 1 0.0625,0.094 c 0.05385,0.057 -0.174658,-0.2877 0.21875,0.2187 a 9.24845,9.24845 0 0 1 0.28125,0.3126 c 11.57557,14.335 36.247789,9.352 40.84375,-8.6876 a 9.24845,9.24845 0 0 1 0.0937,-0.3124 c 0.19832,-0.8281 0.008,-0.053 0.0312,-0.125 a 9.24845,9.24845 0 0 1 0.0312,-0.063 9.24845,9.24845 0 0 1 0,-0.031 c 0.001,-0.01 0.0207,0.01 0.0312,-0.031 a 9.24845,9.24845 0 0 1 0,-0.063 9.24845,9.24845 0 0 1 0,-0.062 l 0.0312,0 a 9.24845,9.24845 0 0 1 0.0625,-0.2813 c 3.92014,-14.3533 -6.46592,-29.34669 -21.03125,-30.125 z"
       transform="matrix(0.99628309,0,0,0.99628309,-0.29589183,3.745368)" />
    <path
       sodipodi:type="inkscape:offset"
       inkscape:radius="-9.2475252"
       inkscape:original="M 79.8125 965.59375 C 78.87349 965.54357 77.900916 965.59101 76.9375 965.625 C 76.808853 965.62052 76.690639 965.65918 76.5625 965.65625 C 76.226411 965.67199 75.901286 965.62994 75.5625 965.65625 L 75.5625 965.6875 C 49.004412 965.92111 33.956658 999.13435 51.125 1019.3125 L 51.09375 1019.3438 C 51.259879 1019.5693 51.454586 1019.7494 51.625 1019.9688 C 51.761085 1020.1205 51.860127 1020.2874 52 1020.4375 L 52.03125 1020.4062 C 68.272948 1040.5197 102.59529 1033.4492 109.03125 1008.1875 L 109.0625 1008.1875 C 109.10619 1008.0422 109.11469 1007.8954 109.15625 1007.75 C 109.18765 1007.6189 109.25135 1007.507 109.28125 1007.375 L 109.25 1007.375 C 114.6887 987.46163 100.35553 966.69149 79.8125 965.59375 z "
       style="fill:none;stroke:#b2b2b2;stroke-width:3;stroke-miterlimit:4;stroke-opacity:1;stroke-dasharray:none"
       id="path4032"
       d="m 79.3125,974.8125 c -0.289101,-0.0154 -1.01524,0.0255 -2.0625,0.0625 a 9.24845,9.24845 0 0 1 -0.25,0 l 0,0.0312 c -0.722964,0.0339 -0.28086,-0.0255 -0.375,-0.0312 a 9.24845,9.24845 0 0 1 -0.09375,0 c 0.405304,0.0214 1.232195,0.0637 -0.1875,0.0312 a 9.24845,9.24845 0 0 1 -0.6875,0.0312 c -18.879806,0.16607 -29.694652,24.04248 -17.5,38.375 a 9.24845,9.24845 0 0 1 0.34375,0.4687 9.24845,9.24845 0 0 1 0.03125,0.063 9.24845,9.24845 0 0 1 0.09375,0.094 c -0.01604,-0.023 0.04059,0.045 0.03125,0.031 a 9.24845,9.24845 0 0 1 0.0625,0.094 c 0.05385,0.057 -0.174658,-0.2877 0.21875,0.2187 a 9.24845,9.24845 0 0 1 0.28125,0.3126 c 11.57557,14.335 36.247789,9.352 40.84375,-8.6876 a 9.24845,9.24845 0 0 1 0.0937,-0.3124 c 0.19832,-0.8281 0.008,-0.053 0.0312,-0.125 a 9.24845,9.24845 0 0 1 0.0312,-0.063 9.24845,9.24845 0 0 1 0,-0.031 c 0.001,-0.01 0.0207,0.01 0.0312,-0.031 a 9.24845,9.24845 0 0 1 0,-0.063 9.24845,9.24845 0 0 1 0,-0.062 l 0.0312,0 a 9.24845,9.24845 0 0 1 0.0625,-0.2813 c 3.92014,-14.3533 -6.46592,-29.34669 -21.03125,-30.125 z"
       transform="matrix(0.99628309,0,0,0.99628309,-0.29589183,6.7453677)" />
    <path
       transform="matrix(0.99628309,0,0,0.99628309,-0.29589183,3.745368)"
       d="m 79.3125,974.8125 c -0.289101,-0.0154 -1.01524,0.0255 -2.0625,0.0625 a 9.24845,9.24845 0 0 1 -0.25,0 l 0,0.0312 c -0.722964,0.0339 -0.28086,-0.0255 -0.375,-0.0312 a 9.24845,9.24845 0 0 1 -0.09375,0 c 0.405304,0.0214 1.232195,0.0637 -0.1875,0.0312 a 9.24845,9.24845 0 0 1 -0.6875,0.0312 c -18.879806,0.16607 -29.694652,24.04248 -17.5,38.375 a 9.24845,9.24845 0 0 1 0.34375,0.4687 9.24845,9.24845 0 0 1 0.03125,0.063 9.24845,9.24845 0 0 1 0.09375,0.094 c -0.01604,-0.023 0.04059,0.045 0.03125,0.031 a 9.24845,9.24845 0 0 1 0.0625,0.094 c 0.05385,0.057 -0.174658,-0.2877 0.21875,0.2187 a 9.24845,9.24845 0 0 1 0.28125,0.3126 c 11.57557,14.335 36.247789,9.352 40.84375,-8.6876 a 9.24845,9.24845 0 0 1 0.0937,-0.3124 c 0.19832,-0.8281 0.008,-0.053 0.0312,-0.125 a 9.24845,9.24845 0 0 1 0.0312,-0.063 9.24845,9.24845 0 0 1 0,-0.031 c 0.001,-0.01 0.0207,0.01 0.0312,-0.031 a 9.24845,9.24845 0 0 1 0,-0.063 9.24845,9.24845 0 0 1 0,-0.062 l 0.0312,0 a 9.24845,9.24845 0 0 1 0.0625,-0.2813 c 3.92014,-14.3533 -6.46592,-29.34669 -21.03125,-30.125 z"
       id="path4030"
       style="fill:#f4f4f4;stroke:#666666;stroke-width:3.51305772;stroke-miterlimit:4;stroke-opacity:1;stroke-dasharray:none;fill-opacity:1"
       inkscape:original="M 79.8125 965.59375 C 78.87349 965.54357 77.900916 965.59101 76.9375 965.625 C 76.808853 965.62052 76.690639 965.65918 76.5625 965.65625 C 76.226411 965.67199 75.901286 965.62994 75.5625 965.65625 L 75.5625 965.6875 C 49.004412 965.92111 33.956658 999.13435 51.125 1019.3125 L 51.09375 1019.3438 C 51.259879 1019.5693 51.454586 1019.7494 51.625 1019.9688 C 51.761085 1020.1205 51.860127 1020.2874 52 1020.4375 L 52.03125 1020.4062 C 68.272948 1040.5197 102.59529 1033.4492 109.03125 1008.1875 L 109.0625 1008.1875 C 109.10619 1008.0422 109.11469 1007.8954 109.15625 1007.75 C 109.18765 1007.6189 109.25135 1007.507 109.28125 1007.375 L 109.25 1007.375 C 114.6887 987.46163 100.35553 966.69149 79.8125 965.59375 z "
       inkscape:radius="-9.2475252"
       sodipodi:type="inkscape:offset" />
    <path
       d="m 78.84375,983.9375 c 0.351825,0.0188 -0.120055,-0.009 -1.25,0.0312 a 18.369085,18.369085 0 0 1 -0.1875,0 l 0,0.0312 c 1.948733,0.0678 1.993141,0.1034 -1.15625,0.0312 a 18.369085,18.369085 0 0 1 -0.09375,0 18.369085,18.369085 0 0 1 -0.4375,0.0312 C 64.411112,984.16196 57.8353,998.83858 65.125,1007.4062 A 18.369085,18.369085 0 0 1 65.5625,1008 c 0.01555,0.017 0.01614,0.014 0.03125,0.031 0.250636,0.2793 0.339786,0.4183 0.46875,0.5626 0.168599,0.216 -0.356548,-0.4458 0.0625,0.094 a 18.369085,18.369085 0 0 1 0.1875,0.1875 c 0.04348,0.054 0.112141,0.072 0.15625,0.125 0.0072,0.01 0.09197,0.1225 0.09375,0.125 7.072974,8.2894 21.905517,5.3281 24.65625,-5.4688 a 18.369085,18.369085 0 0 1 0.0625,-0.1874 c 0.03488,-0.1457 0.03069,-0.086 0.0625,-0.2188 0.103914,-0.434 0.116051,-0.4205 0.1875,-0.7188 0.01439,-0.053 0.01749,-0.1035 0.03125,-0.1562 2.303639,-8.82175 -4.1,-17.97695 -12.71875,-18.4375 z M 77.40625,984 c -1.861753,0.0872 -1.137211,0.0343 -0.3125,-0.0312 A 18.369085,18.369085 0 0 1 77,983.96875 18.369085,18.369085 0 0 1 76.90625,984 c 0.268509,0.009 0.289965,-0.007 0.5,0 z"
       id="path3972"
       style="fill:url(#radialGradient4016);fill-opacity:1;stroke:#1e3050;stroke-width:2.99794611;stroke-miterlimit:4;stroke-opacity:1;stroke-dasharray:none"
       inkscape:original="M 79.8125 965.59375 C 78.87349 965.54357 77.900916 965.59101 76.9375 965.625 C 76.808853 965.62052 76.690639 965.65918 76.5625 965.65625 C 76.226411 965.67199 75.901286 965.62994 75.5625 965.65625 L 75.5625 965.6875 C 49.004412 965.92111 33.956658 999.13435 51.125 1019.3125 L 51.09375 1019.3438 C 51.259879 1019.5693 51.454586 1019.7494 51.625 1019.9688 C 51.761085 1020.1205 51.860127 1020.2874 52 1020.4375 L 52.03125 1020.4062 C 68.272948 1040.5197 102.59529 1033.4492 109.03125 1008.1875 L 109.0625 1008.1875 C 109.10619 1008.0422 109.11469 1007.8954 109.15625 1007.75 C 109.18765 1007.6189 109.25135 1007.507 109.28125 1007.375 L 109.25 1007.375 C 114.6887 987.46163 100.35553 966.69149 79.8125 965.59375 z "
       inkscape:radius="-18.367249"
       sodipodi:type="inkscape:offset"
       transform="matrix(1.0006851,0,0,1.0006851,-0.59994001,-0.72603317)" />
    <rect
       style="fill:url(#radialGradient3998);fill-opacity:1;stroke:none"
       id="rect3974"
       width="22.142857"
       height="10.714286"
       x="92.14286"
       y="29.428572"
       transform="translate(0,924.36218)" />
    <rect
       ry="9.5741949"
       rx="9.5869808"
       y="949.27832"
       x="7.6661177"
       height="86.167763"
       width="112.16776"
       id="rect4008"
       style="fill:none;stroke:#4d4d4d;stroke-width:3.83223510000000010;stroke-linejoin:miter;stroke-miterlimit:0;stroke-opacity:1;stroke-dasharray:none;fill-opacity:1" />
    <path
       sodipodi:type="arc"
       style="fill:#ffffff;fill-opacity:1;stroke:none"
       id="path4020"
       sodipodi:cx="71.847099"
       sodipodi:cy="72.062805"
       sodipodi:rx="2.6516504"
       sodipodi:ry="2.6516504"
       d="m 74.49875,72.062805 c 0,1.464466 -1.187185,2.651651 -2.651651,2.651651 -1.464466,0 -2.65165,-1.187185 -2.65165,-2.651651 0,-1.464466 1.187184,-2.65165 2.65165,-2.65165 1.464466,0 2.651651,1.187184 2.651651,2.65165 z"
       transform="matrix(0.94280904,0,0,0.94280904,2.7619053,926.92072)" />
  </g>
</svg>
